<svg width="64" height="64" viewBox="0 0 64 64" fill="none" xmlns="http://www.w3.org/2000/svg">
  <circle cx="32" cy="32" r="32" fill="url(#gradient3)"/>
  <rect x="16" y="20" width="32" height="24" rx="2" fill="white" opacity="0.9"/>
  <rect x="16" y="20" width="32" height="8" rx="2" fill="#10b981"/>
  <circle cx="24" cy="24" r="1" fill="white"/>
  <circle cx="28" cy="24" r="1" fill="white"/>
  <circle cx="32" cy="24" r="1" fill="white"/>
  <circle cx="36" cy="24" r="1" fill="white"/>
  <circle cx="40" cy="24" r="1" fill="white"/>
  <circle cx="44" cy="24" r="1" fill="white"/>
  <rect x="20" y="32" width="6" height="6" rx="1" fill="#10b981"/>
  <rect x="30" y="32" width="6" height="6" rx="1" fill="#10b981"/>
  <rect x="40" y="32" width="6" height="6" rx="1" fill="#10b981"/>
  <rect x="20" y="40" width="6" height="6" rx="1" fill="#10b981"/>
  <rect x="30" y="40" width="6" height="6" rx="1" fill="#10b981"/>
  <defs>
    <linearGradient id="gradient3" x1="0%" y1="0%" x2="100%" y2="100%">
      <stop offset="0%" style="stop-color:#10b981;stop-opacity:1" />
      <stop offset="100%" style="stop-color:#34d399;stop-opacity:1" />
    </linearGradient>
  </defs>
</svg> 