<svg width="120" height="40" viewBox="0 0 120 40" fill="none" xmlns="http://www.w3.org/2000/svg">
  <circle cx="20" cy="20" r="16" fill="url(#logoGradient)"/>
  <path d="M20 8c-6.627 0-12 5.373-12 12s5.373 12 12 12 12-5.373 12-12-5.373-12-12-12zm0 2c5.514 0 10 4.486 10 10s-4.486 10-10 10-10-4.486-10-10 4.486-10 10-10z" fill="white"/>
  <circle cx="20" cy="16" r="2" fill="#10b981"/>
  <circle cx="20" cy="24" r="2" fill="#10b981"/>
  <path d="M16 20h8" stroke="#10b981" stroke-width="2" stroke-linecap="round"/>
  <text x="45" y="26" font-family="Arial, sans-serif" font-size="16" font-weight="bold" fill="#374151">Mindfulness</text>
  <defs>
    <linearGradient id="logoGradient" x1="0%" y1="0%" x2="100%" y2="100%">
      <stop offset="0%" style="stop-color:#10b981;stop-opacity:1" />
      <stop offset="100%" style="stop-color:#34d399;stop-opacity:1" />
    </linearGradient>
  </defs>
</svg> 